<svg width="24" height="24" viewBox="0 0 24 24" fill="none" xmlns="http://www.w3.org/2000/svg">
<path fill-rule="evenodd" clip-rule="evenodd" d="M6 2C3.79086 2 2 3.79086 2 6V18C2 20.2091 3.79086 22 6 22H18C20.2091 22 22 20.2091 22 18V6C22 3.79086 20.2091 2 18 2H6ZM7.05028 8.46443C6.65975 8.07391 6.65975 7.44074 7.05028 7.05022C7.4408 6.65969 8.07397 6.65969 8.46449 7.05022L12 10.5858L15.5356 7.05022C15.9261 6.65969 16.5592 6.65969 16.9498 7.05022C17.3403 7.44074 17.3403 8.07391 16.9498 8.46443L13.4142 12L16.9498 15.5355C17.3403 15.926 17.3403 16.5592 16.9498 16.9497C16.5592 17.3402 15.9261 17.3402 15.5356 16.9497L12 13.4142L8.46449 16.9497C8.07397 17.3402 7.4408 17.3402 7.05028 16.9497C6.65975 16.5592 6.65975 15.926 7.05028 15.5355L10.5858 12L7.05028 8.46443Z" fill="#282828"/>
</svg>
